<svg width="38" height="38" viewBox="0 0 38 38" fill="none" xmlns="http://www.w3.org/2000/svg">
<path d="M32.0767 3.17346C32.3637 3.17391 32.6407 3.27822 32.8567 3.46712C33.0727 3.65602 33.2129 3.91673 33.2516 4.20104L33.2627 4.36254L33.2563 11.4828C33.2541 12.3584 32.9301 13.2026 32.3459 13.8548C31.7617 14.507 30.9581 14.9217 30.0881 15.02V18.5983C30.0882 19.501 29.7456 20.3701 29.1296 21.0299C28.5135 21.6897 27.67 22.0911 26.7694 22.1529L26.5256 22.1608H26.125V26.5815C26.1252 27.2117 25.9583 27.8307 25.6412 28.3753C25.3241 28.9199 24.8682 29.3707 24.32 29.6816L24.0746 29.8083L13.5692 34.7261C13.4004 34.8051 13.2154 34.8432 13.0292 34.8374C12.843 34.8316 12.6608 34.7821 12.4972 34.6928C12.3337 34.6036 12.1934 34.4771 12.0878 34.3237C11.9822 34.1702 11.9142 33.994 11.8892 33.8094L11.8782 33.651V22.1608H11.4792C10.5765 22.1609 9.70738 21.8183 9.04756 21.2023C8.38773 20.5863 7.98637 19.7427 7.92458 18.8421L7.91667 18.5983V15.02C7.09026 14.9276 6.32221 14.549 5.7456 13.9498C5.16898 13.3506 4.82014 12.5686 4.7595 11.7393L4.75 11.4796V4.36096C4.75009 4.06009 4.86439 3.77047 5.06979 3.55062C5.27519 3.33077 5.55639 3.19709 5.85656 3.17658C6.15673 3.15608 6.4535 3.25027 6.68689 3.44014C6.92028 3.63001 7.07291 3.9014 7.11392 4.19946L7.125 4.36096V11.4796C7.125 12.0813 7.5715 12.5785 8.151 12.6576L8.3125 12.6671H29.6891C30.2907 12.6671 30.7895 12.219 30.8702 11.6395L30.8813 11.4796L30.8877 4.35938C30.8877 4.04443 31.0128 3.74238 31.2355 3.51969C31.4582 3.29699 31.7602 3.17188 32.0752 3.17188M23.75 22.1608H14.2548V31.7827L23.0692 27.6565C23.2473 27.573 23.402 27.4465 23.5192 27.2885C23.6363 27.1304 23.7124 26.9456 23.7405 26.7509L23.7532 26.5815L23.75 22.1608ZM27.7115 15.0421H10.2917V18.5983C10.2917 19.2 10.7382 19.6971 11.3177 19.7747L11.4792 19.7858H26.5256C26.8125 19.7858 27.0898 19.6819 27.3061 19.4932C27.5223 19.3046 27.663 19.0441 27.702 18.7598L27.7131 18.5983L27.7115 15.0421Z" fill="#42D4F4" fill-opacity="0.5"/>
</svg>
