<svg width="38" height="38" viewBox="0 0 38 38" fill="none" xmlns="http://www.w3.org/2000/svg">
<path d="M8.5502 3.80078C7.79433 3.80078 7.06942 4.10105 6.53494 4.63553C6.00046 5.17001 5.7002 5.89491 5.7002 6.65078V12.3508C5.7002 13.1066 6.00046 13.8316 6.53494 14.366C7.06942 14.9005 7.79433 15.2008 8.5502 15.2008H29.4502C30.2061 15.2008 30.931 14.9005 31.4655 14.366C31.9999 13.8316 32.3002 13.1066 32.3002 12.3508V6.65078C32.3002 5.89491 31.9999 5.17001 31.4655 4.63553C30.931 4.10105 30.2061 3.80078 29.4502 3.80078H8.5502ZM11.4002 20.9008C10.3924 20.9008 9.42583 20.5004 8.71319 19.7878C8.00055 19.0751 7.6002 18.1086 7.6002 17.1008H30.4002C30.4002 18.1086 29.9998 19.0751 29.2872 19.7878C28.5746 20.5004 27.608 20.9008 26.6002 20.9008H11.4002ZM11.4002 22.8008H26.6002V24.8414C26.6002 25.5472 26.4036 26.2391 26.0324 26.8395C25.6612 27.4398 25.1302 27.925 24.4988 28.2405L12.7758 34.102C12.631 34.1746 12.47 34.2089 12.3081 34.2017C12.1463 34.1945 11.989 34.1461 11.8511 34.061C11.7133 33.9759 11.5995 33.8569 11.5206 33.7155C11.4416 33.574 11.4002 33.4147 11.4002 33.2527V22.8008Z" fill="#911EB4" fill-opacity="0.5"/>
</svg>
